# xmcd CD database file
#
# Track frame offsets:
#	150
#	21337
#	38900
#	58960
#	80482
#	105732
#	124437
#	145112
#	166962
#	183995
#	205385
#
# Disc length: 2970 seconds
#
# Revision: 2
# Processed by: cddbd v1.4b41PL1 Copyright (c) Steve Scherf et al.
# Submitted via: Feurio! 1.52 - http://www.feurio.com
#
DISCID=a00b980b
DTITLE=Curtis Stigers - Brighter Days
DYEAR=1900
DGENRE=
TTITLE0=She's Fading Away
TTITLE1=To Be Loved
TTITLE2=End Of The Afternoon
TTITLE3=Well Worn Love
TTITLE4=Then I Had This Dream
TTITLE5=Brighter Days
TTITLE6=Van Said (Sha La La)
TTITLE7=The Last Embrace
TTITLE8=Undertow
TTITLE9=Don't Go Far
TTITLE10=Deep Dark Night
EXTD=
EXTT0=
EXTT1=
EXTT2=
EXTT3=
EXTT4=
EXTT5=
EXTT6=
EXTT7=
EXTT8=
EXTT9=
EXTT10=
PLAYORDER=
